<?xml version="1.0" encoding="UTF-8" standalone="no"?>
<!-- Created with Inkscape (http://www.inkscape.org/) -->

<svg
   version="1.1"
   id="svg1"
   width="644"
   height="245.33333"
   viewBox="0 0 644 245.33333"
   sodipodi:docname="brdy-token-dark.svg"
   inkscape:version="1.3.1 (9b9bdc1480, 2023-11-25, custom)"
   inkscape:export-filename="../fbec8e84/brdy-token-logo.png"
   inkscape:export-xdpi="96"
   inkscape:export-ydpi="96"
   xmlns:inkscape="http://www.inkscape.org/namespaces/inkscape"
   xmlns:sodipodi="http://sodipodi.sourceforge.net/DTD/sodipodi-0.dtd"
   xmlns="http://www.w3.org/2000/svg"
   xmlns:svg="http://www.w3.org/2000/svg">
  <defs
     id="defs1">
    <rect
       x="281.18683"
       y="72.921729"
       width="790.58323"
       height="178.87035"
       id="rect7" />
    <rect
       x="281.18683"
       y="72.92173"
       width="790.58325"
       height="178.87035"
       id="rect7-9" />
  </defs>
  <sodipodi:namedview
     id="namedview1"
     pagecolor="#ffffff"
     bordercolor="#000000"
     borderopacity="0.25"
     inkscape:showpageshadow="2"
     inkscape:pageopacity="0.0"
     inkscape:pagecheckerboard="0"
     inkscape:deskcolor="#d1d1d1"
     showgrid="false"
     inkscape:zoom="1.4076256"
     inkscape:cx="401.02993"
     inkscape:cy="279.19356"
     inkscape:window-width="1849"
     inkscape:window-height="1011"
     inkscape:window-x="0"
     inkscape:window-y="0"
     inkscape:window-maximized="1"
     inkscape:current-layer="layer1"
     inkscape:export-bgcolor="#ffffffff"
     showborder="false" />
  <g
     inkscape:groupmode="layer"
     id="layer1"
     inkscape:label="BRDY">
    <text
       xml:space="preserve"
       id="text7"
       style="font-style:normal;font-variant:normal;font-weight:normal;font-stretch:normal;font-size:112px;font-family:sans-serif;-inkscape-font-specification:'sans-serif, ';font-variant-ligatures:normal;font-variant-caps:normal;font-variant-numeric:normal;font-variant-east-asian:normal;white-space:pre;shape-inside:url(#rect7);display:inline;fill:#000000"
       transform="matrix(1.1847679,0,0,1.3852267,-124.19149,-68.594229)"><tspan
         x="281.1875"
         y="172.01562"
         id="tspan2"><tspan
           style="font-weight:bold;font-family:Sans;-inkscape-font-specification:'Sans, Bold';stroke:#000000"
           id="tspan1">BRDY</tspan></tspan></text>
  </g>
  <g
     inkscape:groupmode="layer"
     inkscape:label="Image"
     id="g1">
    <g
       id="g2"
       transform="translate(-229.55374,19.789453)">
      <path
         style="fill:#b6ddee"
         d="m 351.64035,139.4967 c -11.29362,-2.34405 -21.93417,-6.40668 -29.73177,-11.35177 -9.52241,-6.03894 -8.44258,-7.53825 6.06511,-8.42115 6.78333,-0.41283 14.73333,-1.47072 17.66666,-2.35088 4.80839,-1.44278 5.08126,-1.74769 2.77227,-3.09776 -9.73456,-5.69186 -20.32209,-20.480983 -17.02366,-23.779413 0.88715,-0.88715 0.26528,-3.62308 -1.86193,-8.19171 -3.66524,-7.87185 -4.58728,-23.08537 -1.4716,-24.28097 1.25746,-0.48253 1.59184,-2.835555 1.19081,-8.379676 -0.4281,-5.918426 0.13296,-9.313984 2.41578,-14.620558 1.63536,-3.801496 3.4873,-6.911811 4.11543,-6.911811 0.62812,0 2.31111,2.291563 3.73997,5.092361 6.59104,12.919513 19.77022,25.517994 34.31657,32.804524 8.43987,4.22768 9.80637,4.27515 9.80637,0.34063 0,-5.88823 4.09622,-15.081002 8.94388,-20.071908 7.52205,-7.744336 11.67256,-9.442378 23.15349,-9.472472 8.76238,-0.02297 10.81641,0.449366 15.53587,3.572561 2.99118,1.979467 7.2457,5.532732 9.45451,7.896145 l 4.016,4.297114 8.19432,-2.797946 c 12.10782,-4.134211 12.35399,-1.028492 1.11491,14.065856 -3.14398,4.22245 -6.02982,10.11752 -7.17982,14.66667 -5.66632,22.414613 -22.90836,43.627563 -43.29826,53.270043 -17.64622,8.34497 -35.87521,11.05541 -51.93491,7.72212 z m 75.4158,-78.143483 c 2.27858,-2.5178 2.32169,-3.06893 0.49543,-6.333333 -3.62264,-6.475373 -11.91122,-4.304207 -11.91122,3.120103 0,5.78572 7.24277,7.82436 11.41579,3.21323 z"
         id="path5" />
      <path
         style="fill:#515f91"
         d="m 418.15376,61.360158 c -3.73734,-3.737335 -0.10166,-10.040361 4.87951,-8.4594 3.36037,1.066539 4.545,4.232739 2.80213,7.48932 -1.55139,2.89881 -5.28181,3.36991 -7.68164,0.97008 z"
         id="path2" />
    </g>
  </g>
</svg>
